<svg width="179" height="339" viewBox="0 0 179 339" fill="none" xmlns="http://www.w3.org/2000/svg">
<path d="M20.5 31C15.7 37 15.5 197.167 16 276.5L16.0011 276.721C16.0928 294.383 16.3296 339.994 95 338.5C158.2 337.3 167 296.667 163.5 276.5L158.5 31C87 -22 26.5 23.5 20.5 31Z" fill="white"/>
<path d="M12 248.5C5.2 246.9 1.5 239.167 0.5 235.5C12.5 233.1 20.8333 239.5 23.5 243C22.5 245.5 18.8 250.1 12 248.5Z" fill="black"/>
<path d="M161.5 248.5C159.5 248.5 156.667 245.833 155.5 244.5C154.7 242.9 155.833 241.167 156.5 240.5C162.5 234.9 173.667 234.833 178.5 235.5C174.5 249.5 164 248.5 161.5 248.5Z" fill="black"/>
<path d="M20.5 30.5C39.8333 12.5 94.5 -12.7 158.5 30.5C134.667 7.83339 73.7 -23.8999 20.5 30.5Z" fill="#CACDCC"/>
<path d="M144.263 53.3746C98.9706 37.6082 53.3485 45.9008 32.6232 53.1817C31.0894 53.7206 29.5263 52.3503 29.9057 50.7695L31.6581 43.4677C31.8738 42.5687 32.4955 41.8151 33.3422 41.4435C75.9114 22.7627 123.722 33.2333 143.984 41.4135C144.939 41.7992 145.599 42.6601 145.761 43.6773L146.957 51.1502C147.199 52.6643 145.711 53.8787 144.263 53.3746Z" fill="#FF582A"/>
<path d="M36.5 267.5L44.5 222C84.5 236.8 121.5 228.167 135 222L142 267.5C95.6 293.5 52.3333 278.333 36.5 267.5Z" fill="#30303D"/>
<path d="M36 216L27.5 254.5C23.5 252.5 26.8333 158.333 29 111.5L36 216Z" fill="#30303D"/>
<path d="M143.5 217L152 254.5C156.4 250.5 152.5 157.167 150 111L143.5 217Z" fill="#30303D"/>
<path d="M136.5 79.5C98.9 55.9 58.5 69.6667 43 79.5L42 128C80 123.2 120.833 126 136.5 128V79.5Z" fill="#30303D"/>
</svg>
